<svg width="114" height="114" viewBox="0 0 114 114" fill="none" xmlns="http://www.w3.org/2000/svg">
<g filter="url(#filter0_d_140_452)">
<path d="M53.237 72.663C53.741 73.1455 54.3354 73.5238 54.986 73.776C56.2763 74.3061 57.7236 74.3061 59.014 73.776C59.6646 73.5238 60.2589 73.1455 60.763 72.663L76.663 56.763C77.661 55.765 78.2217 54.4114 78.2217 53C78.2217 51.5886 77.661 50.235 76.663 49.237C75.665 48.239 74.3114 47.6783 72.9 47.6783C71.4886 47.6783 70.135 48.239 69.137 49.237L62.3 56.127L62.3 37.1C62.3 35.6944 61.7416 34.3463 60.7476 33.3524C59.7537 32.3584 58.4056 31.8 57 31.8C55.5943 31.8 54.2463 32.3584 53.2523 33.3524C52.2584 34.3463 51.7 35.6944 51.7 37.1L51.7 56.127L44.863 49.237C44.3703 48.7403 43.7841 48.346 43.1382 48.0769C42.4924 47.8078 41.7997 47.6693 41.1 47.6693C40.4003 47.6693 39.7076 47.8078 39.0617 48.0769C38.4159 48.346 37.8297 48.7403 37.337 49.237C36.8402 49.7297 36.4459 50.3159 36.1769 50.9618C35.9078 51.6076 35.7693 52.3003 35.7693 53C35.7693 53.6997 35.9078 54.3924 36.1769 55.0383C36.4459 55.6841 36.8402 56.2703 37.337 56.763L53.237 72.663ZM57 106C67.4824 106 77.7294 102.892 86.4452 97.0679C95.161 91.2442 101.954 82.9667 105.966 73.2822C109.977 63.5977 111.027 52.9412 108.982 42.6602C106.937 32.3792 101.889 22.9355 94.4766 15.5234C87.0645 8.11118 77.6208 3.06342 67.3398 1.0184C57.0588 -1.02661 46.4023 0.0229626 36.7178 4.03441C27.0333 8.04585 18.7558 14.839 12.9321 23.5548C7.1084 32.2706 4 42.5176 4 53C4 59.9601 5.37089 66.852 8.03438 73.2822C10.6979 79.7125 14.6018 85.5552 19.5233 90.4767C29.4628 100.416 42.9435 106 57 106ZM57 10.6C65.3859 10.6 73.5835 13.0867 80.5562 17.7457C87.5288 22.4047 92.9633 29.0267 96.1725 36.7742C99.3816 44.5218 100.221 53.047 98.5853 61.2718C96.9493 69.4966 92.9111 77.0516 86.9813 82.9813C81.0516 88.9111 73.4966 92.9493 65.2718 94.5853C57.047 96.2213 48.5218 95.3817 40.7742 92.1725C33.0266 88.9633 26.4047 83.5288 21.7457 76.5562C17.0867 69.5835 14.6 61.3859 14.6 53C14.6 41.7548 19.0671 30.9702 27.0187 23.0187C34.9702 15.0672 45.7548 10.6 57 10.6Z" fill="white"/>
</g>
<defs>
<filter id="filter0_d_140_452" x="0" y="0" width="114" height="114" filterUnits="userSpaceOnUse" color-interpolation-filters="sRGB">
<feFlood flood-opacity="0" result="BackgroundImageFix"/>
<feColorMatrix in="SourceAlpha" type="matrix" values="0 0 0 0 0 0 0 0 0 0 0 0 0 0 0 0 0 0 127 0" result="hardAlpha"/>
<feOffset dy="4"/>
<feGaussianBlur stdDeviation="2"/>
<feComposite in2="hardAlpha" operator="out"/>
<feColorMatrix type="matrix" values="0 0 0 0 0 0 0 0 0 0 0 0 0 0 0 0 0 0 0.25 0"/>
<feBlend mode="normal" in2="BackgroundImageFix" result="effect1_dropShadow_140_452"/>
<feBlend mode="normal" in="SourceGraphic" in2="effect1_dropShadow_140_452" result="shape"/>
</filter>
</defs>
</svg>
