<svg width="864" height="864" viewBox="0 0 864 864" fill="none" xmlns="http://www.w3.org/2000/svg">
<circle cx="432" cy="432" r="432" fill="#6563FF"/>
<path d="M641.375 275.25C641.375 275.25 581.471 228.358 510.75 223L504.372 235.756C568.307 251.421 597.646 273.821 628.312 301.375C575.45 274.383 523.302 249.125 432.375 249.125C341.448 249.125 289.3 274.383 236.437 301.375C267.104 273.821 302.005 248.921 360.378 235.756L354 223C279.809 229.99 223.375 275.25 223.375 275.25C223.375 275.25 156.481 372.249 145 562.625C212.405 640.388 314.812 641 314.812 641L336.243 612.477C299.862 599.823 258.838 577.269 223.375 536.5C265.675 568.493 329.508 601.812 432.375 601.812C535.242 601.812 599.075 568.493 641.375 536.5C605.912 577.269 564.888 599.823 528.507 612.477L549.937 641C549.937 641 652.345 640.388 719.75 562.625C708.269 372.249 641.375 275.25 641.375 275.25ZM347.469 510.375C322.211 510.375 301.75 487.005 301.75 458.125C301.75 429.245 322.211 405.875 347.469 405.875C372.726 405.875 393.187 429.245 393.187 458.125C393.187 487.005 372.726 510.375 347.469 510.375ZM517.281 510.375C492.024 510.375 471.562 487.005 471.562 458.125C471.562 429.245 492.024 405.875 517.281 405.875C542.539 405.875 563 429.245 563 458.125C563 487.005 542.539 510.375 517.281 510.375Z" fill="white"/>
</svg>
