<svg width="864" height="864" viewBox="0 0 864 864" fill="none" xmlns="http://www.w3.org/2000/svg">
<circle cx="432" cy="432" r="432" fill="#D9D9D9"/>
<path d="M431.5 863.469C669.518 863.469 862.469 670.518 862.469 432.5C862.469 194.482 669.518 1.53027 431.5 1.53027C193.482 1.53027 0.530273 194.482 0.530273 432.5C0.530273 670.518 193.482 863.469 431.5 863.469Z" fill="#29B6F6"/>
<path d="M645.959 238.538L565.238 650.674C565.238 650.674 561.769 669.507 538.411 669.507C525.999 669.507 519.599 663.603 519.599 663.603L344.754 518.517L259.207 475.399L149.418 446.2C149.418 446.2 129.873 440.555 129.873 424.393C129.873 410.926 149.978 404.504 149.978 404.504L609.305 222.032C609.284 222.01 623.333 216.968 633.569 216.989C639.861 216.989 647.036 219.683 647.036 227.764C647.036 233.151 645.959 238.538 645.959 238.538Z" fill="white"/>
<path d="M410.055 572.466L336.23 645.17C336.23 645.17 333.019 647.649 328.731 647.756C327.244 647.799 325.649 647.562 324.012 646.83L344.784 518.293L410.055 572.466Z" fill="#B0BEC5"/>
<path d="M558.571 307.347C554.93 302.606 548.207 301.744 543.466 305.343L259.112 475.511C259.112 475.511 304.493 602.475 311.41 624.454C318.349 646.455 323.909 646.972 323.909 646.972L344.681 518.436L556.546 322.431C561.287 318.832 562.17 312.087 558.571 307.347Z" fill="#CFD8DC"/>
</svg>
